<svg width="108" height="108" xmlns="http://www.w3.org/2000/svg">

 <g>
  <title>Layer 1</title>
  <g stroke="null" id="svg_1">
   <path stroke="null" id="path_0" d="m68.96313,39.66786l-49.57661,-15.07579c-0.42816,-0.13521 -0.87886,-0.20281 -1.32955,-0.20281c-2.47883,0 -4.50697,1.98307 -4.50697,4.43936l0,41.9373c0,1.93799 1.26195,3.65065 3.10981,4.23654l18.7039,5.94919c0.47322,0.15775 0.85632,0.45071 1.14928,0.81125l12.39415,16.94618c0.40562,0.58592 1.08167,0.92393 1.80278,0.92393c1.26194,0 2.27602,-0.99154 2.27602,-2.23094l0,-11.35754l13.31809,4.01118c0.42815,0.13521 0.87885,0.2028 1.32954,0.2028c2.47883,0 4.50696,-2.00558 4.50696,-4.46187l0,-41.89224c0,-1.938 -1.28447,-3.67318 -3.1774,-4.25908l0,0.02253zm-42.47814,9.03647c-1.73518,-3.40276 1.46476,-7.25622 5.13794,-6.19708l13.79131,4.03373c1.4873,0.42817 2.63659,1.59998 3.08728,3.06474c0.969,3.44783 -2.27602,6.62524 -5.70131,5.56611l-13.72371,-4.28162c-1.12674,-0.36057 -2.05067,-1.12675 -2.56897,-2.18587l-0.02253,0zm27.80797,22.71509c-1.05914,0.78872 -2.41122,1.01407 -3.65065,0.60844l-13.67863,-4.43938c-3.04219,-0.99152 -3.71824,-5.00271 -1.14927,-6.94071c1.0366,-0.78873 2.38869,-1.01408 3.62811,-0.60844l13.67863,4.43936c3.06474,0.99154 3.74078,5.00272 1.17181,6.94073z" fill="#FFFFFF"/>
   <path stroke="null" id="path_1" d="m91.27261,23.6456l-49.57661,-15.07579c-0.42817,-0.13521 -0.87886,-0.20282 -1.32956,-0.20282c-2.47883,0 -4.50696,1.98307 -4.50696,4.43936l0,0.78871l45.38512,13.79131c3.40276,1.03661 5.65624,4.10133 5.65624,7.61677l0,38.512l1.71264,0.5183c0.42816,0.11268 0.85632,0.20281 1.32955,0.20281c2.47885,0 4.50697,-2.0056 4.50697,-4.46188l0,-41.86971c0,-1.96053 -1.28448,-3.67317 -3.17739,-4.25908z" fill="#FFFFFF"/>
   <path stroke="null" id="path_2" d="m80.23053,30.7666l-49.5766,-15.07579c-0.42816,-0.13521 -0.87886,-0.20282 -1.32955,-0.20282c-2.47883,0 -4.50697,1.98307 -4.50697,4.4619l0,2.61403l45.15979,13.72371c3.40275,1.0366 5.65623,4.10134 5.65623,7.61677l0,36.64162l1.93799,0.58591c0.42818,0.13521 0.87887,0.20281 1.32957,0.20281c2.47884,0 4.50697,-1.98306 4.50697,-4.43935l0,-41.89223c0,-1.938 -1.2845,-3.67318 -3.17743,-4.25908l0,0.02253z" fill="#FFFFFF"/>
  </g>
 </g>
</svg>