<svg width="201" height="80" viewBox="0 0 201 80" fill="none" xmlns="http://www.w3.org/2000/svg">
<path d="M64.793 27.5064V24.0624C65.241 24.8044 66.025 25.2384 67.033 25.2384C68.867 25.2384 70.267 23.7124 70.267 21.2904C70.267 18.8824 68.867 17.3564 67.033 17.3564C66.025 17.3564 65.241 17.7904 64.793 18.5324V17.5244H63.127V27.5064H64.793ZM66.669 23.8804C65.577 23.8804 64.723 23.0264 64.723 21.2904C64.723 19.5544 65.577 18.7144 66.669 18.7144C67.831 18.7144 68.531 19.7084 68.531 21.2904C68.531 22.8864 67.831 23.8804 66.669 23.8804ZM74.915 25.2384C76.749 25.2384 78.625 24.0204 78.625 21.3044C78.625 18.5884 76.749 17.3564 74.915 17.3564C73.081 17.3564 71.205 18.5884 71.205 21.3044C71.205 24.0204 73.081 25.2384 74.915 25.2384ZM74.915 23.8804C73.865 23.8804 72.927 23.0404 72.927 21.3044C72.927 19.5684 73.865 18.7144 74.915 18.7144C75.965 18.7144 76.903 19.5684 76.903 21.3044C76.903 23.0404 75.965 23.8804 74.915 23.8804ZM82.713 25.0564L84.197 19.4844L85.681 25.0564H87.263L89.265 17.5244H87.459L86.353 22.8724L85.051 17.5244H83.329L82.041 22.8724L80.935 17.5244H79.129L81.131 25.0564H82.713ZM93.577 25.2384C95.523 25.2384 96.643 24.0064 96.993 22.8024H95.355C95.061 23.5024 94.375 23.8524 93.507 23.8524C92.555 23.8524 91.575 23.1664 91.463 21.7664H97.077C97.217 19.2324 95.775 17.3564 93.465 17.3564C91.323 17.3564 89.769 18.9664 89.769 21.2344C89.769 23.3904 91.155 25.2384 93.577 25.2384ZM95.383 20.5484H91.463C91.603 19.1204 92.681 18.6584 93.465 18.6584C94.445 18.6584 95.341 19.3724 95.383 20.5484ZM100.115 25.0564V21.1084C100.115 19.5964 100.717 19.1764 101.767 19.1764C102.019 19.1764 102.285 19.1904 102.565 19.2184V17.5384C102.439 17.5244 102.257 17.5104 102.131 17.5104C101.221 17.5244 100.493 18.0284 100.087 18.8684V17.5244H98.449V25.0564H100.115ZM106.751 25.2384C108.697 25.2384 109.817 24.0064 110.167 22.8024H108.529C108.235 23.5024 107.549 23.8524 106.681 23.8524C105.729 23.8524 104.749 23.1664 104.637 21.7664H110.251C110.391 19.2324 108.949 17.3564 106.639 17.3564C104.497 17.3564 102.943 18.9664 102.943 21.2344C102.943 23.3904 104.329 25.2384 106.751 25.2384ZM108.557 20.5484H104.637C104.777 19.1204 105.855 18.6584 106.639 18.6584C107.619 18.6584 108.515 19.3724 108.557 20.5484ZM114.465 25.2384C115.473 25.2384 116.257 24.8044 116.705 24.0624V25.0564H118.371V14.9064H116.705V18.5324C116.257 17.7904 115.473 17.3564 114.465 17.3564C112.687 17.3564 111.189 18.8824 111.189 21.2904C111.189 23.7124 112.687 25.2384 114.465 25.2384ZM114.829 23.8804C113.723 23.8804 112.925 22.8864 112.925 21.2904C112.925 19.7084 113.723 18.7144 114.829 18.7144C115.921 18.7144 116.775 19.5544 116.775 21.2904C116.775 23.0264 115.921 23.8804 114.829 23.8804ZM127.373 25.2384C129.151 25.2384 130.649 23.7124 130.649 21.2904C130.649 18.8824 129.151 17.3564 127.373 17.3564C126.365 17.3564 125.581 17.7904 125.133 18.5324V14.9064H123.467V25.0564H125.133V24.0624C125.581 24.8044 126.365 25.2384 127.373 25.2384ZM127.009 23.8804C125.917 23.8804 125.063 23.0264 125.063 21.2904C125.063 19.5544 125.917 18.7144 127.009 18.7144C128.115 18.7144 128.913 19.7084 128.913 21.2904C128.913 22.8864 128.115 23.8804 127.009 23.8804ZM132.329 27.5064C134.023 27.5064 134.527 26.9884 135.227 25.0424L137.873 17.5244H136.165L134.457 22.9284L132.749 17.5244H130.929L133.659 25.0144L133.575 25.1964C133.259 26.1187 132.967 26.2226 132.327 26.2316L131.573 26.2324V27.5064H132.329Z" fill="white"/>
<path d="M14.5 43.8626H20.3378V47.8096H14.5V43.8626ZM14.5 49.6192H20.3378V64.7517H14.5V49.6192ZM23.6839 49.6192H29.12V52.0843C29.9328 51.0774 30.7552 50.3578 31.5871 49.9256C32.419 49.4933 33.4326 49.2772 34.6279 49.2772C36.2439 49.2772 37.5085 49.7546 38.4217 50.7093C39.3349 51.664 39.7915 53.1387 39.7915 55.1336V64.7517H33.9251V56.4303C33.9251 55.4803 33.7482 54.8082 33.3944 54.414C33.0406 54.0198 32.5433 53.8227 31.9027 53.8227C31.195 53.8227 30.6213 54.0887 30.1814 54.6206C29.7416 55.1526 29.5216 56.1073 29.5216 57.4847V64.7517H23.6839V49.6192ZM49.3914 49.6192H52.174V53.8654H49.3914V64.7517H43.5393V53.8654H41.3591V49.6192H43.5393V48.9352C43.5393 48.3178 43.6062 47.6386 43.7401 46.8976C43.8739 46.1567 44.1249 45.5511 44.4931 45.0809C44.8612 44.6106 45.3776 44.2307 46.0422 43.9409C46.7068 43.6512 47.6797 43.5063 48.9611 43.5063L49.4662 43.5148C50.4527 43.5457 51.7713 43.6616 53.4219 43.8626L52.7764 47.3678C52.0784 47.2539 51.5142 47.1969 51.0839 47.1969C50.558 47.1969 50.1803 47.2847 49.9508 47.4605C49.7213 47.6362 49.5587 47.9141 49.4631 48.294C49.4153 48.503 49.3914 48.9447 49.3914 49.6192ZM52.7231 57.2282C52.7231 54.9199 53.5072 53.0176 55.0755 51.5215C56.6437 50.0253 58.7617 49.2772 61.4296 49.2772C64.48 49.2772 66.7844 50.1559 68.3431 51.9133C69.5958 53.3287 70.2221 55.0718 70.2221 57.1427C70.2221 59.4701 69.4452 61.3771 67.8913 62.8637C66.3374 64.3504 64.1883 65.0937 61.4439 65.0937C58.996 65.0937 57.0166 64.4763 55.5058 63.2413C53.6507 61.7119 52.7231 59.7076 52.7231 57.2282ZM58.5753 57.214C58.5753 58.5629 58.8502 59.5603 59.4 60.2063C59.9498 60.8522 60.6407 61.1752 61.4726 61.1752C62.3141 61.1752 63.005 60.857 63.5452 60.2205C64.0855 59.5841 64.3556 58.5629 64.3556 57.157C64.3556 55.846 64.0831 54.87 63.5381 54.2288C62.993 53.5876 62.3189 53.267 61.5157 53.267C60.6646 53.267 59.9618 53.5923 59.4072 54.243C58.8526 54.8937 58.5753 55.884 58.5753 57.214ZM72.6933 49.6192H78.1438V51.8278C78.9279 50.9064 79.7191 50.2509 80.5176 49.8614C81.316 49.472 82.2794 49.2772 83.4078 49.2772C84.6222 49.2772 85.5832 49.491 86.2908 49.9184C86.9984 50.3459 87.5769 50.9824 88.0264 51.8278C88.9443 50.8399 89.781 50.1678 90.5364 49.8116C91.2919 49.4553 92.2242 49.2772 93.3334 49.2772C94.9686 49.2772 96.2451 49.7593 97.1631 50.7235C98.0811 51.6877 98.5401 53.1957 98.5401 55.2476V64.7517H92.688V56.131C92.688 55.4471 92.5541 54.9389 92.2863 54.6064C91.8943 54.0839 91.4066 53.8227 90.8233 53.8227C90.1348 53.8227 89.5802 54.0697 89.1595 54.5636C88.7387 55.0576 88.5284 55.8508 88.5284 56.9432V64.7517H82.6763V56.416C82.6763 55.7511 82.638 55.2998 82.5615 55.0624C82.4372 54.6824 82.2221 54.376 81.9161 54.1433C81.6101 53.9106 81.2515 53.7942 80.8403 53.7942C80.171 53.7942 79.6211 54.0459 79.1908 54.5494C78.7605 55.0529 78.5454 55.8793 78.5454 57.0287V64.7517H72.6933V49.6192ZM106.964 54.5209L101.384 53.9367C101.595 52.9677 101.898 52.2054 102.295 51.6497C102.692 51.094 103.263 50.6119 104.009 50.2034C104.545 49.9089 105.281 49.681 106.218 49.5195C107.155 49.358 108.169 49.2772 109.259 49.2772C111.009 49.2772 112.414 49.3746 113.476 49.5693C114.537 49.7641 115.422 50.1702 116.129 50.7876C116.626 51.2151 117.018 51.8207 117.305 52.6044C117.592 53.3881 117.736 54.1362 117.736 54.8486V61.5314C117.736 62.2439 117.781 62.802 117.872 63.2057C117.963 63.6094 118.161 64.1248 118.467 64.7517H112.988C112.768 64.3623 112.625 64.0654 112.558 63.8612C112.491 63.6569 112.424 63.3363 112.357 62.8993C111.592 63.6308 110.832 64.1533 110.076 64.4667C109.044 64.8847 107.843 65.0937 106.476 65.0937C104.659 65.0937 103.28 64.6757 102.338 63.8398C101.396 63.0038 100.925 61.9732 100.925 60.7477C100.925 59.5983 101.265 58.6531 101.944 57.9122C102.574 57.2241 103.699 56.6999 105.319 56.3395L108.409 55.7018C109.119 55.5486 109.636 55.4281 109.962 55.3402C110.612 55.1645 111.3 54.9341 112.027 54.6491C112.027 53.9367 111.879 53.438 111.582 53.153C111.286 52.868 110.765 52.7255 110.019 52.7255C109.063 52.7255 108.346 52.8775 107.867 53.1815C107.494 53.419 107.193 53.8654 106.964 54.5209ZM112.027 57.5702C111.425 57.7839 110.803 57.979 110.163 58.1553L109.517 58.3254C108.331 58.6389 107.581 58.9476 107.265 59.2516C106.94 59.5651 106.777 59.9213 106.777 60.3203C106.777 60.7762 106.937 61.1491 107.258 61.4388C107.578 61.7285 108.049 61.8734 108.671 61.8734C109.321 61.8734 109.926 61.7167 110.485 61.4032C111.044 61.0897 111.441 60.7074 111.676 60.2561C111.91 59.8049 112.027 59.2183 112.027 58.4964V57.5702ZM120.852 49.6192H126.288V52.0843C127.101 51.0774 127.924 50.3578 128.755 49.9256C129.587 49.4933 130.601 49.2772 131.796 49.2772C133.412 49.2772 134.677 49.7546 135.59 50.7093C136.503 51.664 136.96 53.1387 136.96 55.1336V64.7517H131.093V56.4303C131.093 55.4803 130.917 54.8082 130.563 54.414C130.209 54.0198 129.712 53.8227 129.071 53.8227C128.363 53.8227 127.79 54.0887 127.35 54.6206C126.91 55.1526 126.69 56.1073 126.69 57.4847V64.7517H120.852V49.6192ZM140.277 43.8626H146.115V47.8096H140.277V43.8626ZM140.277 49.6192H146.115V64.7517H140.277V49.6192ZM154.783 54.5209L149.203 53.9367C149.413 52.9677 149.717 52.2054 150.114 51.6497C150.511 51.094 151.082 50.6119 151.828 50.2034C152.363 49.9089 153.1 49.681 154.037 49.5195C154.974 49.358 155.987 49.2772 157.078 49.2772C158.827 49.2772 160.233 49.3746 161.295 49.5693C162.356 49.7641 163.24 50.1702 163.948 50.7876C164.445 51.2151 164.837 51.8207 165.124 52.6044C165.411 53.3881 165.555 54.1362 165.555 54.8486V61.5314C165.555 62.2439 165.6 62.802 165.691 63.2057C165.782 63.6094 165.98 64.1248 166.286 64.7517H160.807L160.612 64.3931C160.5 64.1746 160.421 63.9973 160.377 63.8612C160.31 63.6569 160.243 63.3363 160.176 62.8993C159.411 63.6308 158.651 64.1533 157.895 64.4667C156.862 64.8847 155.662 65.0937 154.295 65.0937C152.478 65.0937 151.099 64.6757 150.157 63.8398C149.215 63.0038 148.744 61.9732 148.744 60.7477C148.744 59.5983 149.084 58.6531 149.762 57.9122C150.393 57.2241 151.518 56.6999 153.138 56.3395L156.228 55.7018C156.938 55.5486 157.455 55.4281 157.78 55.3402C158.431 55.1645 159.119 54.9341 159.846 54.6491C159.846 53.9367 159.698 53.438 159.401 53.153C159.105 52.868 158.584 52.7255 157.838 52.7255C156.882 52.7255 156.164 52.8775 155.686 53.1815C155.313 53.419 155.012 53.8654 154.783 54.5209ZM159.846 57.5702C159.243 57.7839 158.622 57.979 157.982 58.1553L157.336 58.3254C156.15 58.6389 155.399 58.9476 155.084 59.2516C154.759 59.5651 154.596 59.9213 154.596 60.3203C154.596 60.7762 154.756 61.1491 155.077 61.4388C155.397 61.7285 155.868 61.8734 156.489 61.8734C157.14 61.8734 157.745 61.7167 158.304 61.4032C158.863 61.0897 159.26 60.7074 159.494 60.2561C159.729 59.8049 159.846 59.2183 159.846 58.4964V57.5702ZM168.671 43.8626H174.638V54.6349L178.998 49.6192H186.184L180.72 54.9199L186.5 64.7517H179.916L176.833 58.6816L174.638 60.819V64.7517H168.671V43.8626Z" fill="white"/>
</svg>
