<svg width="119" height="132" viewBox="0 0 119 132" fill="none" xmlns="http://www.w3.org/2000/svg">
<path opacity="0.8" d="M97.4456 32.3844L25.7329 10.5899C25.1117 10.4012 24.4655 10.3052 23.8156 10.3052C20.2151 10.3052 17.2963 13.1881 17.2963 16.7444V25.8485L81.138 45.2508C83.8735 46.0822 85.7401 48.5785 85.7401 51.4054V102.879L93.6111 105.271C94.2322 105.459 94.8784 105.555 95.5283 105.555C99.1288 105.555 102.048 102.672 102.048 99.1161V38.5389C102.048 35.712 100.181 33.2157 97.4456 32.3844Z" fill="white"/>
<path opacity="0.28" d="M113.408 22.0792L41.6958 0.284751C41.0746 0.0959782 40.4284 0 39.7785 0C36.178 0 33.2592 2.88296 33.2592 6.43927V30.6997L81.1393 45.2511C83.8747 46.0824 85.7413 48.5787 85.7413 51.4056V87.7224L109.574 94.9654C110.195 95.1542 110.841 95.2502 111.491 95.2502C115.092 95.2502 118.011 92.3672 118.011 88.8109V28.2337C118.011 25.4068 116.144 22.9105 113.408 22.0792Z" fill="white"/>
<path fill-rule="evenodd" clip-rule="evenodd" d="M9.42623 23.4566L81.1389 45.2511C83.8744 46.0824 85.741 48.5787 85.741 51.4056V112.006C85.741 115.562 82.8222 118.445 79.2217 118.445C78.5773 118.445 77.9364 118.35 77.32 118.165L58.0338 112.356V128.78C58.0338 130.559 56.5744 132 54.7742 132C53.7279 132 52.7452 131.504 52.1323 130.666L34.2118 106.177C33.8055 105.621 33.2303 105.209 32.57 104.998L5.50895 96.383C2.81543 95.5255 0.989655 93.0495 0.989655 90.2543V29.6111C0.989655 26.0548 3.90846 23.1719 7.50899 23.1719C8.15887 23.1719 8.80509 23.2679 9.42623 23.4566ZM19.7075 58.3378C17.1963 53.4014 21.8178 47.8442 27.1435 49.3962L47.0944 55.2101C49.2403 55.8355 50.9134 57.515 51.5278 59.6605C52.9557 64.6469 48.2517 69.2303 43.2928 67.6844L23.4548 61.4998C21.8292 60.993 20.4784 59.8532 19.7075 58.3378ZM58.2488 81.1734C62.6705 82.6105 63.6343 88.4171 59.916 91.2185C58.4098 92.3534 56.4439 92.6829 54.6526 92.1007L34.8604 85.668C30.4386 84.2309 29.4748 78.4244 33.1931 75.6229C34.6994 74.4881 36.6652 74.1586 38.4565 74.7407L58.2488 81.1734Z" fill="white"/>
</svg>
