<svg width="204" height="204" viewBox="0 0 204 204" fill="none" xmlns="http://www.w3.org/2000/svg">
<g clip-path="url(#clip0_3019_51194)">
<path d="M102 204C158.333 204 204 158.333 204 102C204 45.667 158.333 0 102 0C45.667 0 0 45.667 0 102C0 158.333 45.667 204 102 204Z" fill="#2D2E30"/>
<path opacity="0.289597" fill-rule="evenodd" clip-rule="evenodd" d="M89.4899 56.4416L140.337 71.8947C142.276 72.4841 143.6 74.2541 143.6 76.2584V119.21C143.6 121.731 141.53 123.775 138.977 123.775C138.517 123.775 138.058 123.707 137.618 123.574L86.7711 108.12C84.8316 107.531 83.5081 105.761 83.5081 103.757V60.8054C83.5081 58.2839 85.5776 56.2397 88.1305 56.2397C88.5913 56.2397 89.0495 56.3078 89.4899 56.4416Z" fill="#0088B2"/>
<path opacity="0.6" fill-rule="evenodd" clip-rule="evenodd" d="M77.9445 63.7488L128.791 79.2018C130.731 79.7912 132.054 81.5612 132.054 83.5656V126.517C132.054 129.038 129.985 131.083 127.432 131.083C126.971 131.083 126.513 131.014 126.073 130.881L75.2257 115.428C73.2862 114.838 71.9626 113.068 71.9626 111.064V68.1125C71.9626 65.591 74.0322 63.5469 76.5851 63.5469C77.0459 63.5469 77.5041 63.6149 77.9445 63.7488Z" fill="#0088B2"/>
<path fill-rule="evenodd" clip-rule="evenodd" d="M66.382 72.8791L117.229 88.3322C119.168 88.9216 120.492 90.6916 120.492 92.6959V135.663C120.492 138.185 118.422 140.229 115.869 140.229C115.413 140.229 114.958 140.162 114.521 140.03L100.846 135.912V147.557C100.846 148.818 99.8117 149.84 98.5353 149.84C97.7934 149.84 97.0967 149.488 96.6621 148.895L83.9559 131.531C83.6677 131.137 83.2599 130.844 82.7917 130.695L63.6045 124.586C61.6947 123.978 60.4001 122.223 60.4001 120.241V77.2429C60.4001 74.7214 62.4697 72.6772 65.0226 72.6772C65.4834 72.6772 65.9416 72.7453 66.382 72.8791Z" fill="#0088B2"/>
<path d="M73.6715 97.604C71.891 94.1038 75.1677 90.1636 78.9439 91.264L93.0898 95.3863C94.6113 95.8297 95.7976 97.0205 96.2332 98.5418V98.5418C97.2457 102.077 93.9103 105.327 90.3943 104.231L76.3285 99.8459C75.1759 99.4866 74.2181 98.6784 73.6715 97.604V97.604Z" fill="white"/>
<path d="M102.181 120.917C104.817 118.931 104.134 114.814 100.999 113.795L86.9653 109.234C85.6953 108.821 84.3014 109.054 83.2334 109.859V109.859C80.597 111.845 81.2804 115.962 84.4156 116.981L98.449 121.542C99.7191 121.955 101.113 121.722 102.181 120.917V120.917Z" fill="white"/>
</g>
<defs>
<clipPath id="clip0_3019_51194">
<rect width="204" height="204" fill="white"/>
</clipPath>
</defs>
</svg>
