<svg width="1024" height="1024" viewBox="0 0 1024 1024" fill="none" xmlns="http://www.w3.org/2000/svg">
<path fill-rule="evenodd" clip-rule="evenodd" d="M252.601 292.47L623.216 405.019C637.353 409.312 647 422.204 647 436.802V749.746C647 768.112 631.915 782.999 613.308 782.999C609.977 782.999 606.665 782.512 603.48 781.553L503.808 751.554V836.373C503.808 845.556 496.265 853 486.961 853C481.554 853 476.476 850.438 473.308 846.113L380.694 719.646C378.594 716.779 375.622 714.647 372.209 713.561L232.356 669.07C218.436 664.642 209 651.855 209 637.421V324.253C209 305.888 224.085 291 242.692 291C246.051 291 249.391 291.496 252.601 292.47Z" fill="#75CCE2"/>
</svg>
