<svg width="1024" height="1024" viewBox="0 0 1024 1024" fill="none" xmlns="http://www.w3.org/2000/svg">
<path d="M305.582 471.868C292.79 446.739 316.332 418.449 343.462 426.35L445.094 455.946C456.025 459.129 464.548 467.679 467.678 478.601C474.952 503.985 450.989 527.317 425.728 519.447L324.671 487.964C316.39 485.384 309.509 479.582 305.582 471.868Z" fill="white"/>
<path d="M364.266 600.661C351.473 575.532 375.015 547.242 402.145 555.143L503.777 584.739C514.709 587.922 523.232 596.472 526.361 607.394C533.636 632.778 509.673 656.11 484.411 648.24L383.355 616.757C375.074 614.177 368.192 608.375 364.266 600.661Z" fill="white"/>
</svg>
