<svg width="16" height="16" viewBox="0 0 16 16" fill="none" xmlns="http://www.w3.org/2000/svg">
<path d="M2.25788 11.3607L2.40689 11.3651C2.70504 11.3851 2.99496 11.4716 3.25542 11.6181C3.47242 11.7402 3.6644 11.9015 3.82185 12.0933L3.85913 12.142L3.90835 12.1799C4.02333 12.2744 4.1273 12.3813 4.21841 12.4986L4.30516 12.6192L4.38293 12.7463C4.52926 13.0067 4.61552 13.2965 4.63542 13.5946C4.6553 13.8926 4.60831 14.1913 4.4979 14.4688C4.38747 14.7463 4.21639 14.9957 4.01123 15.1851C3.62034 15.5759 3.10388 15.8115 2.50108 15.9231C1.95069 16.0251 1.37667 16.0179 0.832832 15.9457L0.788246 15.9397L0.745945 15.9336L0.600702 15.9101L0.496489 15.8898C0.303914 15.8477 0.153426 15.6974 0.111054 15.5048L0.106336 15.4828L0.101313 15.458L0.0789047 15.3325L0.0545929 15.1677C-0.0181156 14.6231 -0.0254716 14.0483 0.0771626 13.4971C0.189127 12.8957 0.424899 12.3802 0.802045 12.0036C1.00497 11.7843 1.2544 11.6131 1.53225 11.5025C1.71738 11.4289 1.91191 11.3835 2.10935 11.3673L2.25788 11.3607ZM1.90568 12.4413C1.76791 12.4961 1.64423 12.581 1.53006 12.7038C1.29963 12.9343 1.14783 13.2662 1.07041 13.682C1.00167 14.0511 0.99631 14.452 1.0338 14.8408L1.04646 14.953L1.15877 14.9662C1.41784 14.991 1.68227 14.9969 1.93911 14.9778L2.13011 14.9587L2.31705 14.9297C2.73413 14.8525 3.06669 14.7008 3.31089 14.4571C3.41956 14.3565 3.50439 14.2329 3.55916 14.0952C3.6139 13.9577 3.6372 13.8096 3.62734 13.6618C3.61748 13.514 3.57471 13.3704 3.50214 13.2412C3.44775 13.1444 3.37763 13.0576 3.29486 12.9843L3.20798 12.9156L3.16258 12.8795L3.12167 12.8386L3.08565 12.7932L3.01695 12.7062C2.94364 12.6233 2.85684 12.5531 2.76004 12.4986C2.63087 12.426 2.48711 12.3831 2.3393 12.3732C2.19153 12.3633 2.04332 12.3866 1.90568 12.4413ZM15.8488 0.147958C16.0282 0.327301 16.0445 0.607943 15.8977 0.805704L15.8488 0.862362L14.985 1.72499L15.1133 5.09657C15.1 5.70666 14.9364 6.30406 14.6371 6.83586C14.371 7.30856 14.0051 7.71651 13.5583 8.0363L13.387 8.15204L9.99732 10.1979L10.1734 10.6448C10.3106 10.9964 10.3448 11.3798 10.272 11.7501C10.2084 12.0742 10.065 12.3766 9.85045 12.636L9.75414 12.7445L8.24687 14.257C8.12758 14.3712 7.97833 14.4491 7.81656 14.4819C7.65482 14.5147 7.48706 14.5009 7.34406 14.4464C7.19612 14.3941 7.06342 14.3061 6.95751 14.1898C6.87298 14.0969 6.80789 13.9883 6.76546 13.8695L6.73793 13.7785L6.26407 11.8476L4.1505 9.73204L2.21952 9.25842C2.06667 9.22027 1.92572 9.14468 1.80934 9.03844C1.69307 8.93229 1.60501 8.79892 1.55726 8.66185C1.49927 8.508 1.48583 8.34089 1.51852 8.17986C1.54466 8.05091 1.59948 7.92998 1.68309 7.82102L1.75119 7.7416L3.25869 6.23816C3.53145 5.97682 3.87305 5.79868 4.24347 5.72459C4.56757 5.65977 4.90196 5.67697 5.20746 5.77025L5.8035 5.98079L7.85224 2.59196C8.18132 2.07914 8.63154 1.65507 9.16316 1.35714C9.69479 1.05923 10.2914 0.896639 10.9007 0.883653L14.2711 1.01046L15.1344 0.147958C15.3317 -0.0493193 15.6515 -0.0493193 15.8488 0.147958ZM9.12016 10.7278L7.2992 11.827L7.68285 13.3908L9.03026 12.0398C9.13247 11.9323 9.2085 11.8033 9.25313 11.6627L9.28063 11.5553C9.30925 11.4097 9.30421 11.26 9.26678 11.1181L9.23265 11.0133L9.12016 10.7278ZM10.9091 1.89401L10.7564 1.90238C10.3707 1.93434 9.99578 2.0487 9.65707 2.2385C9.31836 2.42832 9.02503 2.68846 8.80131 2.99291L8.70976 3.12603L6.47536 6.82196L6.47116 6.83298C6.46012 6.85372 6.44777 6.87344 6.43424 6.89208L5.04188 9.19459L6.79579 10.9505L12.8543 7.29364C13.1352 7.11455 13.3798 6.88559 13.5764 6.61901L13.6707 6.48263L13.7566 6.34032C13.9472 6.00166 14.0622 5.62645 14.0946 5.26077L14.1035 5.10476L13.9852 2.01121L10.9091 1.89401ZM4.44161 6.71529C4.29598 6.74442 4.15942 6.80627 4.0457 6.89197L3.96492 6.96058L2.60768 8.31291L4.16383 8.69491L5.27027 6.86328L4.98541 6.76211C4.81228 6.69512 4.62365 6.67888 4.44161 6.71529ZM10.9281 3.43318C11.8314 3.43318 12.5636 4.16542 12.5636 5.06869C12.5636 5.97197 11.8314 6.70421 10.9281 6.70421C10.0248 6.70421 9.29256 5.97195 9.29256 5.06869C9.29256 4.16543 10.0248 3.43318 10.9281 3.43318ZM10.9281 4.4435C10.5828 4.4435 10.3029 4.72342 10.3029 5.06869C10.3029 5.41397 10.5828 5.69389 10.9281 5.69389C11.2734 5.69389 11.5533 5.414 11.5533 5.06869C11.5533 4.72339 11.2734 4.4435 10.9281 4.4435Z" fill="url(#paint0_linear_7321_143634)"/>
<defs>
<linearGradient id="paint0_linear_7321_143634" x1="0" y1="7.99992" x2="15.9968" y2="7.99992" gradientUnits="userSpaceOnUse">
<stop stop-color="#1DDDFD"/>
<stop offset="0.25" stop-color="#337CFF"/>
<stop offset="0.5" stop-color="#A055FC"/>
<stop offset="0.755" stop-color="#F34BBB"/>
<stop offset="1" stop-color="#FD8C3D"/>
</linearGradient>
</defs>
</svg>
